<svg xmlns="http://www.w3.org/2000/svg" width="128" height="128" xml:space="preserve"><path fill="#CEA159" d="m106.385 5.222 1.053 3.89-32.794 8.877-1.053-3.89zM52.566 19.78l1.052 3.89-32 8.66-1.053-3.89z"/><path fill="#CEA159" d="M71.037 102.976H56.833V30.96a12.978 12.978 0 0 1-5.763-10.814c0-7.154 5.771-12.973 12.866-12.973 7.094 0 12.864 5.819 12.864 12.973 0 4.385-2.18 8.425-5.764 10.815v72.015zm-10.174-4.03h6.145V28.619l1.062-.57a8.95 8.95 0 0 0 4.702-7.903c0-4.932-3.964-8.944-8.835-8.944-4.873 0-8.837 4.012-8.837 8.944a8.947 8.947 0 0 0 4.702 7.902l1.062.57v70.328z"/><path fill="#CEA159" d="M87.063 104.59h-4.029c0-.985-.575-1.614-.972-1.614H45.803c-.393 0-.964.629-.964 1.614h-4.03c0-3.111 2.24-5.644 4.994-5.644h36.258c2.757 0 5.002 2.533 5.002 5.644zM93.379 122.779H34.491v-14.364h58.888v14.364zm-54.858-4.03H89.35v-6.305H38.521v6.305z"/><path fill="#CEA159" d="M93.379 122.779H34.491v-14.364h58.888v14.364zm-54.858-4.03H89.35v-6.305H38.521v6.305zM34.525 75.312 22.289 41.35 10.055 75.312l-3.792-1.366L22.289 29.46l16.027 44.486z"/><path fill="#CEA159" d="M22.289 91.997c-10.367 0-19.291-7.105-21.702-17.28L0 72.237h44.579l-.587 2.479c-2.411 10.176-11.336 17.281-21.703 17.281zM5.278 76.267c2.716 7.002 9.388 11.701 17.011 11.701S36.584 83.269 39.3 76.267H5.278z"/><g><path fill="#CEA159" d="m117.944 52.711-12.236-33.96L93.475 52.71l-3.792-1.365L105.71 6.859l16.026 44.486z"/><path fill="#CEA159" d="M105.709 69.397c-10.37 0-19.296-7.107-21.703-17.284l-.586-2.479H128l-.588 2.48c-2.416 10.177-11.34 17.283-21.703 17.283zM88.697 53.665c2.713 7.002 9.386 11.702 17.012 11.702 7.62 0 14.292-4.7 17.011-11.702H88.697z"/></g><g><path fill="#CEA159" d="M61.922 17.857h4.029v4.473h-4.029z"/></g></svg>